<svg preserveAspectRatio="none" width="100%" height="100%" overflow="visible" style="display: block;" viewBox="0 0 20 20" fill="none" xmlns="http://www.w3.org/2000/svg">
<g id="tabler-icon-bell">
<path id="Vector" d="M7.29441 13.7726V14.5828C7.29441 15.2274 7.55049 15.8456 8.00631 16.3015C8.46212 16.7573 9.08035 17.0133 9.72497 17.0133C10.3696 17.0133 10.9878 16.7573 11.4436 16.3015C11.8994 15.8456 12.1555 15.2274 12.1555 14.5828V13.7726M8.1046 4.05038C8.1046 3.62064 8.27532 3.20849 8.57919 2.90461C8.88307 2.60073 9.29522 2.43001 9.72497 2.43001C10.1547 2.43001 10.5669 2.60073 10.8707 2.90461C11.1746 3.20849 11.3453 3.62064 11.3453 4.05038C12.2758 4.49034 13.0689 5.17519 13.6398 6.03153C14.2107 6.88787 14.5378 7.88343 14.5861 8.9115V11.3421C14.6471 11.8457 14.8254 12.3281 15.1069 12.7503C15.3883 13.1724 15.7649 13.5226 16.2065 13.7726H3.24349C3.68499 13.5226 4.06162 13.1724 4.34306 12.7503C4.6245 12.3281 4.80289 11.8457 4.86386 11.3421V8.9115C4.91211 7.88343 5.23922 6.88787 5.81011 6.03153C6.38101 5.17519 7.17418 4.49034 8.1046 4.05038Z" stroke="var(--stroke-0, white)" stroke-width="1.21528" stroke-linecap="round" stroke-linejoin="round"/>
</g>
</svg>
