<svg preserveAspectRatio="none" width="100%" height="100%" overflow="visible" style="display: block;" viewBox="0 0 16 15" fill="none" xmlns="http://www.w3.org/2000/svg">
<path id="Vector 291" d="M1 8.31818L3.09957 2.28192C3.36653 1.5144 4.09009 1 4.9027 1H8H11.0973C11.9099 1 12.6335 1.5144 12.9004 2.28192L15 8.31818M1 8.31818H3.07287C3.57919 8.31818 4.06477 8.51932 4.4228 8.87734L5.84993 10.3045C6.20795 10.6625 6.69354 10.8636 7.19986 10.8636H8H8.80014C9.30646 10.8636 9.79204 10.6625 10.1501 10.3045L11.5772 8.87734C11.9352 8.51932 12.4208 8.31818 12.9271 8.31818H15M1 8.31818V11.6638C1 12.1701 1.20114 12.6557 1.55916 13.0137L1.71357 13.1681C2.07159 13.5261 2.55718 13.7273 3.0635 13.7273H8H12.9365C13.4428 13.7273 13.9284 13.5261 14.2864 13.1681L14.4408 13.0137C14.7989 12.6557 15 12.1701 15 11.6638V8.31818" stroke="var(--stroke-0, white)" stroke-width="1.25"/>
</svg>
